<svg xmlns="http://www.w3.org/2000/svg" viewBox="0 0 84.81 83.87"><defs><style>.cls-1,.cls-3{fill:#fff;}.cls-2{fill:#602f88;}.cls-3{fill-rule:evenodd;}</style></defs><title>gitHub</title><g id="Layer_2" data-name="Layer 2"><path class="cls-1" d="M30.58,83.87c-11.35,0-25.65-.07-25.79-.07L0,83.78,0,79c0-3.82.37-37.33.38-37.88A42,42,0,0,1,41.58,0h1.07a42,42,0,0,1,42.1,39.8v.27c0,.27,0,.53,0,.8A42.1,42.1,0,0,1,43.65,83.8C41.68,83.85,37.28,83.87,30.58,83.87Z"/><path id="_Path_" data-name="&lt;Path&gt;" class="cls-2" d="M81.69,40A39.13,39.13,0,0,0,3.51,41.16c0,.57-.4,39.56-.4,39.56s33.62.17,40.48,0A39,39,0,0,0,81.74,40.94C81.73,40.61,81.71,40.28,81.69,40Z"/><path class="cls-3" d="M43.67,17.53a22.74,22.74,0,0,0-7.19,44.32c1.14.21,1.55-.49,1.55-1.1s0-2,0-3.87c-6.33,1.37-7.66-3-7.66-3a6,6,0,0,0-2.52-3.33c-2.06-1.41.16-1.38.16-1.38a4.78,4.78,0,0,1,3.48,2.34c2,3.48,5.32,2.47,6.62,1.89a4.86,4.86,0,0,1,1.44-3c-5-.57-10.36-2.52-10.36-11.24A8.79,8.79,0,0,1,31.5,33a8.18,8.18,0,0,1,.22-6s1.91-.61,6.25,2.33a21.55,21.55,0,0,1,11.39,0C53.71,26.35,55.61,27,55.61,27a8.17,8.17,0,0,1,.23,6,8.78,8.78,0,0,1,2.34,6.1c0,8.74-5.32,10.66-10.38,11.22a5.43,5.43,0,0,1,1.54,4.21c0,3,0,5.49,0,6.24s.41,1.32,1.56,1.09a22.74,22.74,0,0,0-7.2-44.32Z"/></g></svg>