<svg xmlns="http://www.w3.org/2000/svg" viewBox="0 0 84.81 83.87"><defs><style>.cls-1{fill:#fff;}.cls-2{fill:#e62b33;}</style></defs><title>googlePlus</title><g id="Layer_2" data-name="Layer 2"><path class="cls-1" d="M30.58,83.87c-11.35,0-25.65-.07-25.79-.07L0,83.78,0,79c0-3.82.37-37.33.38-37.88A42,42,0,0,1,41.58,0h1.07a42,42,0,0,1,42.1,39.8v.27c0,.27,0,.53,0,.8A42.1,42.1,0,0,1,43.65,83.8C41.68,83.85,37.28,83.87,30.58,83.87Z"/><path id="_Path_" data-name="&lt;Path&gt;" class="cls-2" d="M81.69,40A39.13,39.13,0,0,0,3.51,41.16c0,.57-.4,39.56-.4,39.56s33.62.17,40.48,0A39,39,0,0,0,81.74,40.94C81.73,40.61,81.71,40.28,81.69,40Z"/><path id="_Path_2" data-name="&lt;Path&gt;" class="cls-1" d="M64.93,38.85H63.78v-1c0-1.45,0-2.91,0-4.36,0-.24-.25-.67-.4-.67-1.33-.05-2.66,0-4.06,0v6.07H53.21c0,.45,0,.76,0,1.07,0,1.1.1,2.2.15,3.3,1.07,0,2.15.09,3.22.11.9,0,1.8,0,2.79,0v6h4.39v-6h6V38.85Z"/><path id="_Path_3" data-name="&lt;Path&gt;" class="cls-1" d="M47.68,38.34c-3.8,0-7.59,0-11.38,0-1.08,0-2.17,0-3.25,0-.21,0-.58.25-.58.4,0,2.19,0,4.37,0,6.68h9.3c-.12.45-.2.78-.31,1.09C40,50.78,35.64,52.88,31,52.11a10.24,10.24,0,0,1-8.4-12.16,9.88,9.88,0,0,1,.74-2.34,10.24,10.24,0,0,1,11.38-5.76A9.77,9.77,0,0,1,39,34.11L44.12,29l-.43-.33a16.71,16.71,0,0,0-14.09-3.87A17.37,17.37,0,0,0,15.34,39a17.16,17.16,0,0,0,.92,9.21A17.51,17.51,0,0,0,34.56,59.24a15.64,15.64,0,0,0,10.08-4.73c4-4.26,5-9.42,4.39-15.06C48.93,38.51,48.55,38.33,47.68,38.34Z"/></g></svg>