<?xml version="1.0" encoding="utf-8"?>
<!-- Generator: Adobe Illustrator 22.0.1, SVG Export Plug-In . SVG Version: 6.00 Build 0)  -->
<svg version="1.1" id="Layer_1" xmlns="http://www.w3.org/2000/svg" xmlns:xlink="http://www.w3.org/1999/xlink" x="0px" y="0px"
	 viewBox="0 0 499.4 486.9" style="enable-background:new 0 0 499.4 486.9;" xml:space="preserve">
<style type="text/css">
	.st0{fill:#FFFFFF;}
</style>
<path class="st0" d="M273.7,291.7l-34-115.3c-0.2-0.9-0.5-1.1-1.3-1.1H216c-0.6,0-0.9,0.3-0.9,1.1c-0.2,5.2-0.6,7-1.1,8.9
	l-30.3,106.2c-0.2,1.3,0,1.6,1.1,1.6h15.7c1.1,0,1.4-0.2,1.6-1.1l8.4-32h34.2l8.8,32.1c0.2,0.8,0.7,1,1.6,1h17.7
	C273.7,293.1,273.9,292.6,273.7,291.7z M214.9,242.7c4.5-16.6,10.1-37.7,12.4-50.2h0.2c2.7,12.5,9.8,38.4,12.7,50.2H214.9z"/>
<path class="st0" d="M288.3,183.3c0-6.8,4.8-10.9,10.9-10.9c6.5,0,10.9,4.4,10.9,10.9c0,7-4.6,10.9-11.1,10.9
	C292.8,194.2,288.3,190.4,288.3,183.3z"/>
<path class="st0" d="M308.8,207.6v84.3c0,0.9-0.2,1.3-1.3,1.3h-16.6c-1.1,0-1.4-0.5-1.4-1.4v-84.2h-0.1c0-0.9,0.3-1.3,1.3-1.3h16.8
	C308.4,206.3,308.8,206.6,308.8,207.6z"/>
<path class="st0" d="M273.7,291.7l-34-115.3c-0.2-0.9-0.5-1.1-1.3-1.1H216c-0.6,0-0.9,0.3-0.9,1.1c-0.2,5.2-0.6,7-1.1,8.9
	l-30.3,106.2c-0.2,1.3,0,1.6,1.1,1.6h15.7c1.1,0,1.4-0.2,1.6-1.1l8.4-32h34.2l8.8,32.1c0.2,0.8,0.7,1,1.6,1h17.7
	C273.7,293.1,273.9,292.6,273.7,291.7z M214.9,242.7c4.5-16.6,10.1-37.7,12.4-50.2h0.2c2.7,12.5,9.8,38.4,12.7,50.2H214.9z
	 M299.1,172.4c-6.1,0-10.9,4.1-10.9,10.9c0,7.1,4.5,10.9,10.7,10.9c6.5,0,11.1-3.9,11.1-10.9C310,176.8,305.7,172.4,299.1,172.4z
	 M307.5,206.3h-16.8c-1,0-1.3,0.4-1.3,1.3h0.1v84.2c0,0.9,0.3,1.4,1.4,1.4h16.6c1.1,0,1.3-0.4,1.3-1.3v-84.3
	C308.8,206.6,308.4,206.3,307.5,206.3z M273.7,291.7l-34-115.3c-0.2-0.9-0.5-1.1-1.3-1.1H216c-0.6,0-0.9,0.3-0.9,1.1
	c-0.2,5.2-0.6,7-1.1,8.9l-30.3,106.2c-0.2,1.3,0,1.6,1.1,1.6h15.7c1.1,0,1.4-0.2,1.6-1.1l8.4-32h34.2l8.8,32.1c0.2,0.8,0.7,1,1.6,1
	h17.7C273.7,293.1,273.9,292.6,273.7,291.7z M214.9,242.7c4.5-16.6,10.1-37.7,12.4-50.2h0.2c2.7,12.5,9.8,38.4,12.7,50.2H214.9z
	 M299.1,172.4c-6.1,0-10.9,4.1-10.9,10.9c0,7.1,4.5,10.9,10.7,10.9c6.5,0,11.1-3.9,11.1-10.9C310,176.8,305.7,172.4,299.1,172.4z
	 M307.5,206.3h-16.8c-1,0-1.3,0.4-1.3,1.3h0.1v84.2c0,0.9,0.3,1.4,1.4,1.4h16.6c1.1,0,1.3-0.4,1.3-1.3v-84.3
	C308.8,206.6,308.4,206.3,307.5,206.3z M307.5,206.3h-16.8c-1,0-1.3,0.4-1.3,1.3h0.1v84.2c0,0.9,0.3,1.4,1.4,1.4h16.6
	c1.1,0,1.3-0.4,1.3-1.3v-84.3C308.8,206.6,308.4,206.3,307.5,206.3z M298.9,194.2c6.5,0,11.1-3.9,11.1-10.9
	c0-6.5-4.4-10.9-10.9-10.9c-6.1,0-10.9,4.1-10.9,10.9C288.3,190.4,292.8,194.2,298.9,194.2z M239.7,176.5c-0.2-0.9-0.5-1.1-1.3-1.1
	H216c-0.6,0-0.9,0.3-0.9,1.1c-0.2,5.2-0.6,7-1.1,8.9l-30.3,106.2c-0.2,1.3,0,1.6,1.1,1.6h15.7c1.1,0,1.4-0.2,1.6-1.1l8.4-32h34.2
	l8.8,32.1c0.2,0.8,0.7,1,1.6,1h17.7c0.9,0,1.1-0.5,0.9-1.4L239.7,176.5z M214.9,242.7c4.5-16.6,10.1-37.7,12.4-50.2h0.2
	c2.7,12.5,9.8,38.4,12.7,50.2H214.9z M121.5,118.4v250h256.4v-250H121.5z M367.2,357.8h-235V129.1h235V357.8z M307.5,206.3h-16.8
	c-1,0-1.3,0.4-1.3,1.3h0.1v84.2c0,0.9,0.3,1.4,1.4,1.4h16.6c1.1,0,1.3-0.4,1.3-1.3v-84.3C308.8,206.6,308.4,206.3,307.5,206.3z
	 M298.9,194.2c6.5,0,11.1-3.9,11.1-10.9c0-6.5-4.4-10.9-10.9-10.9c-6.1,0-10.9,4.1-10.9,10.9C288.3,190.4,292.8,194.2,298.9,194.2z
	 M184.8,293.1h15.7c1.1,0,1.4-0.2,1.6-1.1l8.4-32h34.2l8.8,32.1c0.2,0.8,0.7,1,1.6,1h17.7c0.9,0,1.1-0.5,0.9-1.4l-34-115.3
	c-0.2-0.9-0.5-1.1-1.3-1.1H216c-0.6,0-0.9,0.3-0.9,1.1c-0.2,5.2-0.6,7-1.1,8.9l-30.3,106.2C183.5,292.8,183.7,293.1,184.8,293.1z
	 M227.3,192.5h0.2c2.7,12.5,9.8,38.4,12.7,50.2h-25.3C219.4,226.1,225,205,227.3,192.5z M307.5,206.3h-16.8c-1,0-1.3,0.4-1.3,1.3
	h0.1v84.2c0,0.9,0.3,1.4,1.4,1.4h16.6c1.1,0,1.3-0.4,1.3-1.3v-84.3C308.8,206.6,308.4,206.3,307.5,206.3z M299.1,172.4
	c-6.1,0-10.9,4.1-10.9,10.9c0,7.1,4.5,10.9,10.7,10.9c6.5,0,11.1-3.9,11.1-10.9C310,176.8,305.7,172.4,299.1,172.4z M273.7,291.7
	l-34-115.3c-0.2-0.9-0.5-1.1-1.3-1.1H216c-0.6,0-0.9,0.3-0.9,1.1c-0.2,5.2-0.6,7-1.1,8.9l-30.3,106.2c-0.2,1.3,0,1.6,1.1,1.6h15.7
	c1.1,0,1.4-0.2,1.6-1.1l8.4-32h34.2l8.8,32.1c0.2,0.8,0.7,1,1.6,1h17.7C273.7,293.1,273.9,292.6,273.7,291.7z M214.9,242.7
	c4.5-16.6,10.1-37.7,12.4-50.2h0.2c2.7,12.5,9.8,38.4,12.7,50.2H214.9z"/>
</svg>
