<svg xmlns="http://www.w3.org/2000/svg" viewBox="0 0 84.81 83.87"><defs><style>.cls-1{fill:#fff;}.cls-2{fill:#2797cf;}</style></defs><title>linkedIn</title><g id="Layer_2" data-name="Layer 2"><path class="cls-1" d="M30.58,83.87c-11.35,0-25.65-.07-25.79-.07L0,83.78,0,79c0-3.82.37-37.33.38-37.88A42,42,0,0,1,41.58,0h1.07a42,42,0,0,1,42.1,39.8v.27c0,.27,0,.53,0,.8A42.1,42.1,0,0,1,43.65,83.8C41.68,83.85,37.28,83.87,30.58,83.87Z"/><path id="_Path_" data-name="&lt;Path&gt;" class="cls-2" d="M81.69,40A39.13,39.13,0,0,0,3.51,41.16c0,.57-.4,39.56-.4,39.56s33.62.17,40.48,0A39,39,0,0,0,81.74,40.94C81.73,40.61,81.71,40.28,81.69,40Z"/><polygon id="_Path_2" data-name="&lt;Path&gt;" class="cls-1" points="21.87 40.16 21.87 61.51 32.05 61.51 32.05 38.44 32.05 32.44 21.87 32.44 21.87 40.16"/><circle id="_Path_3" data-name="&lt;Path&gt;" class="cls-1" cx="26.96" cy="23" r="5.09"/><path id="_Path_4" data-name="&lt;Path&gt;" class="cls-1" d="M65.25,41.37c-.69-5.48-3.2-8.92-10.61-8.92-4.39,0-7.34,1.63-8.55,3.92H46V32.44h-8.1V61.51h8.47V47.1c0-3.8.72-7.48,5.42-7.48s5,4.34,5,7.72V61.51h8.72v-16h0A33.79,33.79,0,0,0,65.25,41.37Z"/></g></svg>