<svg xmlns="http://www.w3.org/2000/svg" viewBox="0 0 306.22 244.98"><defs><style>.cls-1{fill:#fff;}</style></defs><title>bawLogo</title><g id="Layer_2" data-name="Layer 2"><rect class="cls-1" y="153.11" width="30.62" height="30.62"/><rect class="cls-1" y="183.73" width="30.62" height="30.62"/><rect class="cls-1" x="30.62" y="153.11" width="30.62" height="30.62"/><rect class="cls-1" x="30.62" y="183.73" width="30.62" height="30.62"/><rect class="cls-1" x="61.24" y="153.11" width="30.62" height="30.62"/><rect class="cls-1" x="61.24" y="183.73" width="30.62" height="30.62"/><rect class="cls-1" x="91.87" y="153.11" width="30.62" height="30.62"/><rect class="cls-1" x="91.87" y="183.73" width="30.62" height="30.62"/><rect class="cls-1" x="122.49" y="153.11" width="30.62" height="30.62"/><rect class="cls-1" x="122.49" y="183.73" width="30.62" height="30.62"/><rect class="cls-1" x="153.11" y="153.11" width="30.62" height="30.62"/><rect class="cls-1" x="153.11" y="183.73" width="30.62" height="30.62"/><rect class="cls-1" x="183.73" y="153.11" width="30.62" height="30.62"/><rect class="cls-1" x="183.73" y="183.73" width="30.62" height="30.62"/><rect class="cls-1" x="214.35" y="153.11" width="30.62" height="30.62"/><rect class="cls-1" x="214.35" y="183.73" width="30.62" height="30.62"/><rect class="cls-1" x="61.24" y="91.87" width="30.62" height="30.62"/><rect class="cls-1" x="61.24" y="122.49" width="30.62" height="30.62"/><rect class="cls-1" x="91.87" y="91.87" width="30.62" height="30.62"/><rect class="cls-1" x="91.87" y="122.49" width="30.62" height="30.62"/><rect class="cls-1" x="122.49" y="91.87" width="30.62" height="30.62"/><rect class="cls-1" x="122.49" y="122.49" width="30.62" height="30.62"/><rect class="cls-1" x="153.11" y="91.87" width="30.62" height="30.62"/><rect class="cls-1" x="153.11" y="122.49" width="30.62" height="30.62"/><rect class="cls-1" x="183.73" y="91.87" width="30.62" height="30.62"/><rect class="cls-1" x="183.73" y="122.49" width="30.62" height="30.62"/><rect class="cls-1" x="214.35" y="91.87" width="30.62" height="30.62"/><rect class="cls-1" x="214.35" y="122.49" width="30.62" height="30.62"/><rect class="cls-1" x="30.62" y="214.35" width="30.62" height="30.62"/><rect class="cls-1" x="61.24" y="214.35" width="30.62" height="30.62"/><rect class="cls-1" x="91.87" y="214.35" width="30.62" height="30.62"/><rect class="cls-1" x="122.49" y="214.35" width="30.62" height="30.62"/><rect class="cls-1" x="153.11" y="214.35" width="30.62" height="30.62"/><rect class="cls-1" x="183.73" y="214.35" width="30.62" height="30.62"/><rect class="cls-1" x="214.35" y="214.35" width="30.62" height="30.62"/><rect x="61.24" y="61.24" width="30.62" height="30.62"/><rect x="91.87" y="61.24" width="30.62" height="30.62"/><rect x="122.49" y="61.24" width="30.62" height="30.62"/><rect x="153.11" y="61.24" width="30.62" height="30.62"/><rect x="30.62" y="122.49" width="30.62" height="30.62"/><rect y="122.49" width="30.62" height="30.62"/><rect x="30.62" y="91.87" width="30.62" height="30.62"/><rect y="91.87" width="30.62" height="30.62"/><rect x="30.62" y="61.24" width="30.62" height="30.62"/><rect y="61.24" width="30.62" height="30.62"/><rect x="30.62" y="30.62" width="30.62" height="30.62"/><rect y="30.62" width="30.62" height="30.62"/><rect x="30.62" width="30.62" height="30.62"/><rect x="91.87" y="30.62" width="30.62" height="30.62"/><rect x="61.24" y="30.62" width="30.62" height="30.62"/><rect x="91.87" width="30.62" height="30.62"/><rect x="61.24" width="30.62" height="30.62"/><rect x="153.11" y="30.62" width="30.62" height="30.62"/><rect x="122.49" y="30.62" width="30.62" height="30.62"/><rect x="107.18" y="122.49" width="30.62" height="30.62"/><rect x="183.73" y="122.49" width="30.62" height="30.62"/><rect x="153.11" width="30.62" height="30.62"/><rect x="122.49" width="30.62" height="30.62"/><rect x="214.35" y="30.62" width="30.62" height="30.62"/><rect x="183.73" y="30.62" width="30.62" height="30.62"/><rect x="214.35" y="61.24" width="30.62" height="30.62"/><rect x="183.73" y="61.24" width="30.62" height="30.62"/><rect x="183.73" width="30.62" height="30.62"/><rect x="30.62" width="214.35" height="91.87"/><rect x="244.98" y="61.24" width="61.24" height="30.62"/><rect x="168.42" y="45.93" width="15.31" height="15.31"/><rect x="183.73" y="45.93" width="15.31" height="15.31"/><rect x="183.73" y="30.62" width="15.31" height="15.31"/><rect x="168.42" y="30.62" width="15.31" height="15.31"/><rect x="45.93" y="153.11" width="15.31" height="91.87"/><rect x="45.93" y="229.66" width="199.04" height="15.31"/><rect x="122.49" y="214.35" width="15.31" height="15.31"/><rect x="122.49" y="199.04" width="15.31" height="15.31"/><rect x="168.42" y="214.35" width="15.31" height="15.31"/><rect x="168.42" y="199.04" width="15.31" height="15.31"/><rect x="122.49" y="183.73" width="61.24" height="15.31"/></g></svg>