<?xml version="1.0" encoding="utf-8"?>
<!-- Generator: Adobe Illustrator 22.0.1, SVG Export Plug-In . SVG Version: 6.00 Build 0)  -->
<svg version="1.1" id="Layer_1" xmlns="http://www.w3.org/2000/svg" xmlns:xlink="http://www.w3.org/1999/xlink" x="0px" y="0px"
	 viewBox="0 0 451.7 361.4" style="enable-background:new 0 0 451.7 361.4;" xml:space="preserve">
<style type="text/css">
	.st0{fill:#F6CE65;}
	.st1{fill:#335FFF;}
	.st2{fill:#F4C260;}
	.st3{fill:#5E5344;}
	.st4{fill:#505E30;}
	.st5{fill:#FF0000;}
	.st6{fill:#FFFFFF;}
	.st7{opacity:0.57;fill:#887764;enable-background:new    ;}
	.st8{fill:#887764;}
</style>
<image style="overflow:visible;opacity:0.4;enable-background:new    ;" width="448" height="383" xlink:href="3B6B90EB.png"  transform="matrix(1 0 0 1 34.88 -5.61)">
</image>
<rect x="225.9" y="262.4" class="st0" width="65.4" height="32.7"/>
<rect x="95.1" y="213.4" class="st0" width="49" height="65.4"/>
<polygon class="st0" points="291.3,148 225.9,148 160.5,148 160.5,295.1 225.9,295.1 225.9,258.4 291.3,258.4 291.3,295.1 
	356.7,295.1 356.7,148 "/>
<polygon class="st1" points="356.7,115.3 356.7,49.9 127.8,49.9 127.8,82.6 95.1,82.6 95.1,115.3 95.1,148 127.8,148 356.7,148 
	422.1,148 422.1,115.3 "/>
<title>pixelLogo</title>
<rect x="291.3" y="180.7" class="st0" width="32.7" height="32.7"/>
<polygon class="st2" points="144.1,246.1 144.1,311.5 127.8,311.5 127.8,278.8 95.1,278.8 95.1,246.1 "/>
<rect x="160.5" y="278.8" class="st2" width="65.4" height="16.4"/>
<rect x="242.2" y="278.8" class="st2" width="32.7" height="16.4"/>
<rect x="291.3" y="278.8" class="st2" width="65.4" height="16.4"/>
<polygon class="st3" points="127.8,148 95.1,148 95.1,180.7 95.1,213.4 127.8,213.4 160.5,213.4 160.5,180.7 160.5,148 "/>
<rect x="209.5" y="180.7" class="st4" width="32.7" height="32.7"/>
<rect x="291.3" y="180.7" class="st4" width="32.7" height="32.7"/>
<rect x="274.9" y="98.9" class="st5" width="16.4" height="16.3"/>
<rect x="291.3" y="98.9" class="st6" width="16.4" height="16.3"/>
<rect x="291.3" y="82.6" class="st5" width="16.4" height="16.3"/>
<rect x="274.9" y="82.6" class="st6" width="16.4" height="16.3"/>
<rect x="225.9" y="262.4" class="st7" width="16.4" height="16.4"/>
<polygon class="st8" points="291.3,295.1 291.3,278.8 274.9,278.8 274.9,295.1 242.2,295.1 242.2,278.8 225.9,278.8 225.9,295.1 
	160.5,295.1 160.5,213.4 144.1,213.4 144.1,295.1 144.1,311.5 160.5,311.5 356.7,311.5 356.7,295.1 "/>
<rect x="274.9" y="262.4" class="st7" width="16.4" height="16.4"/>
<rect x="225.9" y="246.1" class="st8" width="65.4" height="16.4"/>
</svg>
