<?xml version="1.0" encoding="utf-8"?>
<!-- Generator: Adobe Illustrator 22.0.1, SVG Export Plug-In . SVG Version: 6.00 Build 0)  -->
<svg version="1.1" id="Layer_1" xmlns="http://www.w3.org/2000/svg" xmlns:xlink="http://www.w3.org/1999/xlink" x="0px" y="0px"
	 viewBox="0 0 499 486.6" style="enable-background:new 0 0 499 486.6;" xml:space="preserve">
<style type="text/css">
	.st0{fill:#FFFFFF;}
</style>
<g>
	<path class="st0" d="M213.2,175.1c-10.5,0-20.7,0.2-27.5,0.5c-0.9,0-2.4,0.5-2.4,1.3v114.7c0,1,0.4,1.3,1.3,1.3h16.3
		c1,0,1.3-0.4,1.3-1.3v-41c2.9,0,4.3,0.2,8.3,0.2c24.1,0,43.8-11.7,43.8-38.8C254.3,191.3,242.8,175.1,213.2,175.1z M211,233.8
		c-4.3,0-6.2,0-8.6-0.2l-0.1-41.3c2-0.1,6-0.3,10.3-0.3c14.2,0,22.7,6.8,22.7,20.4C235.2,229.4,223.5,233.8,211,233.8z"/>
	<path class="st0" d="M213.2,175.1c-10.5,0-20.7,0.2-27.5,0.5c-0.9,0-2.4,0.5-2.4,1.3v114.7c0,1,0.4,1.3,1.3,1.3h16.3
		c1,0,1.3-0.4,1.3-1.3v-41c2.9,0,4.3,0.2,8.3,0.2c24.1,0,43.8-11.7,43.8-38.8C254.3,191.3,242.8,175.1,213.2,175.1z M211,233.8
		c-4.3,0-6.2,0-8.6-0.2l-0.1-41.3c2-0.1,6-0.3,10.3-0.3c14.2,0,22.7,6.8,22.7,20.4C235.2,229.4,223.5,233.8,211,233.8z"/>
	<path class="st0" d="M264.7,288.5v-15.8c0-1.1,0.5-1.4,1.3-0.9c6.7,4.4,14.4,6.3,21.5,6.3c8.4,0,12-3.5,12-8.3
		c0-3.9-2.5-7.2-13.3-12.8c-15.2-7.2-21.5-14.6-21.5-26.9c0-13.8,10.8-25.2,29.5-25.2c9.2,0,15.6,1.4,19.1,3
		c0.9,0.5,1.1,1.4,1.1,2.2v14.6c0,0.9-0.5,1.4-1.6,1.1c-4.7-3-11.7-4.8-18.6-4.8c-8.4,0-11.3,4.3-11.3,7.8c0,3.9,1.9,6.5,13.3,12.4
		c16.7,8.1,22,15.9,22,27.3c0,17.1-13,26.3-30.7,26.3c-9.3,0-17.3-1.9-21.9-4.6C264.8,289.8,264.7,289.3,264.7,288.5z"/>
	<path class="st0" d="M121.3,118.3v250h256.4v-250H121.3z M367.1,357.6H132V129h235V357.6z"/>
	<path class="st0" d="M213.2,175.1c-10.5,0-20.7,0.2-27.5,0.5c-0.9,0-2.4,0.5-2.4,1.3v114.7c0,1,0.4,1.3,1.3,1.3h16.3
		c1,0,1.3-0.4,1.3-1.3v-41c2.9,0,4.3,0.2,8.3,0.2c24.1,0,43.8-11.7,43.8-38.8C254.3,191.3,242.8,175.1,213.2,175.1z M211,233.8
		c-4.3,0-6.2,0-8.6-0.2l-0.1-41.3c2-0.1,6-0.3,10.3-0.3c14.2,0,22.7,6.8,22.7,20.4C235.2,229.4,223.5,233.8,211,233.8z"/>
	<path class="st0" d="M318.1,268.4c0,17.1-13,26.3-30.7,26.3c-9.3,0-17.3-1.9-21.9-4.6c-0.8-0.3-0.9-0.9-0.9-1.7v-15.8
		c0-1.1,0.5-1.4,1.3-0.9c6.7,4.4,14.4,6.3,21.5,6.3c8.4,0,12-3.5,12-8.3c0-3.9-2.5-7.2-13.3-12.8c-15.2-7.2-21.5-14.6-21.5-26.9
		c0-13.8,10.8-25.2,29.5-25.2c9.2,0,15.6,1.4,19.1,3c0.9,0.5,1.1,1.4,1.1,2.2v14.6c0,0.9-0.5,1.4-1.6,1.1c-4.7-3-11.7-4.8-18.6-4.8
		c-8.4,0-11.3,4.3-11.3,7.8c0,3.9,1.9,6.5,13.3,12.4C312.9,249.2,318.1,257,318.1,268.4z"/>
	<path class="st0" d="M213.2,175.1c-10.5,0-20.7,0.2-27.5,0.5c-0.9,0-2.4,0.5-2.4,1.3v114.7c0,1,0.4,1.3,1.3,1.3h16.3
		c1,0,1.3-0.4,1.3-1.3v-41c2.9,0,4.3,0.2,8.3,0.2c24.1,0,43.8-11.7,43.8-38.8C254.3,191.3,242.8,175.1,213.2,175.1z M211,233.8
		c-4.3,0-6.2,0-8.6-0.2l-0.1-41.3c2-0.1,6-0.3,10.3-0.3c14.2,0,22.7,6.8,22.7,20.4C235.2,229.4,223.5,233.8,211,233.8z"/>
	<path class="st0" d="M318.1,268.4c0,17.1-13,26.3-30.7,26.3c-9.3,0-17.3-1.9-21.9-4.6c-0.8-0.3-0.9-0.9-0.9-1.7v-15.8
		c0-1.1,0.5-1.4,1.3-0.9c6.7,4.4,14.4,6.3,21.5,6.3c8.4,0,12-3.5,12-8.3c0-3.9-2.5-7.2-13.3-12.8c-15.2-7.2-21.5-14.6-21.5-26.9
		c0-13.8,10.8-25.2,29.5-25.2c9.2,0,15.6,1.4,19.1,3c0.9,0.5,1.1,1.4,1.1,2.2v14.6c0,0.9-0.5,1.4-1.6,1.1c-4.7-3-11.7-4.8-18.6-4.8
		c-8.4,0-11.3,4.3-11.3,7.8c0,3.9,1.9,6.5,13.3,12.4C312.9,249.2,318.1,257,318.1,268.4z"/>
	<path class="st0" d="M318.1,268.4c0,17.1-13,26.3-30.7,26.3c-9.3,0-17.3-1.9-21.9-4.6c-0.8-0.3-0.9-0.9-0.9-1.7v-15.8
		c0-1.1,0.5-1.4,1.3-0.9c6.7,4.4,14.4,6.3,21.5,6.3c8.4,0,12-3.5,12-8.3c0-3.9-2.5-7.2-13.3-12.8c-15.2-7.2-21.5-14.6-21.5-26.9
		c0-13.8,10.8-25.2,29.5-25.2c9.2,0,15.6,1.4,19.1,3c0.9,0.5,1.1,1.4,1.1,2.2v14.6c0,0.9-0.5,1.4-1.6,1.1c-4.7-3-11.7-4.8-18.6-4.8
		c-8.4,0-11.3,4.3-11.3,7.8c0,3.9,1.9,6.5,13.3,12.4C312.9,249.2,318.1,257,318.1,268.4z"/>
</g>
</svg>
