<?xml version="1.0" encoding="utf-8"?>
<!-- Generator: Adobe Illustrator 22.0.1, SVG Export Plug-In . SVG Version: 6.00 Build 0)  -->
<svg version="1.1" id="Layer_1" xmlns="http://www.w3.org/2000/svg" xmlns:xlink="http://www.w3.org/1999/xlink" x="0px" y="0px"
	 viewBox="0 0 240.6 400" style="enable-background:new 0 0 240.6 400;" xml:space="preserve">
<style type="text/css">
	.st0{fill:#FFFFFF;}
</style>
<g>
	<path class="st0" d="M197.9,162.3c-2.6-0.9-5.1-1.7-7.7-2.4c0.4-1.8,0.8-3.5,1.2-5.3c5.9-28.5,2-51.4-11.1-58.9
		c-12.6-7.2-33.1,0.3-53.8,18.4c-2,1.8-4,3.6-6,5.5c-1.3-1.3-2.6-2.5-4-3.7C94.8,96.5,73,88.4,59.9,96c-12.5,7.3-16.3,28.8-11,55.8
		c0.5,2.7,1.1,5.3,1.8,8c-3.1,0.9-6.1,1.8-8.9,2.8c-25.5,8.9-41.8,22.8-41.8,37.2c0,14.9,17.5,29.9,44,38.9c2.2,0.7,4.3,1.4,6.5,2
		c-0.7,2.8-1.3,5.7-1.9,8.6c-5,26.5-1.1,47.6,11.4,54.8c12.9,7.4,34.6-0.2,55.7-18.7c1.7-1.5,3.3-3,5-4.6c2.1,2,4.3,4,6.5,5.9
		c20.5,17.6,40.7,24.7,53.2,17.5c12.9-7.5,17.1-30.1,11.7-57.6c-0.4-2.1-0.9-4.2-1.4-6.4c1.5-0.5,3-0.9,4.5-1.4
		c27.6-9.1,45.5-23.9,45.5-39C240.7,185.3,223.9,171.3,197.9,162.3z M133.3,121.8c17.8-15.5,34.4-21.6,41.9-17.2
		c8.1,4.6,11.2,23.4,6.1,48c-0.3,1.6-0.7,3.2-1.1,4.8c-10-2.3-20.8-4-32.2-5.1c-6.6-9.4-13.5-18-20.3-25.4
		C129.5,125.1,131.4,123.4,133.3,121.8z M71.1,212.1c2.2,4.2,4.5,8.4,6.8,12.5c2.4,4.2,4.9,8.3,7.6,12.4c-7.9-0.9-15.3-2.1-22.2-3.6
		C65.5,226.5,68.1,219.4,71.1,212.1z M71.1,188c-3-7.1-5.6-14.1-7.6-20.8c6.9-1.5,14.2-2.8,21.8-3.7c-2.6,4-5,8-7.4,12.1
		C75.6,179.6,73.3,183.8,71.1,188z M76.6,200c3.2-6.6,6.6-13.1,10.2-19.4v0c3.7-6.3,7.5-12.5,11.7-18.6c7.2-0.5,14.5-0.8,21.9-0.8
		c7.5,0,14.8,0.3,22,0.8c4.1,6,7.9,12.2,11.6,18.5c3.7,6.3,7.1,12.8,10.4,19.3c-3.2,6.6-6.7,13.1-10.3,19.5h0
		c-3.6,6.3-7.5,12.5-11.5,18.6c-7.1,0.5-14.5,0.8-22,0.8c-7.5,0-14.8-0.2-21.8-0.7c-4.2-6.1-8.1-12.3-11.8-18.7
		C83.2,213.1,79.8,206.6,76.6,200z M162.9,224.5c2.4-4.2,4.7-8.4,7-12.8c3.2,7.3,5.9,14.4,8.1,21.2c-7,1.6-14.5,2.9-22.4,3.8
		C158,232.7,160.5,228.6,162.9,224.5z M169.8,188c-2.2-4.2-4.5-8.4-6.9-12.5c-2.4-4.1-4.8-8.1-7.3-12c7.7,1,15,2.3,21.9,3.8
		C175.4,173.9,172.8,180.8,169.8,188z M120.5,134.2c4.7,5.1,9.5,10.9,14.2,17.1c-9.5-0.4-19-0.5-28.4,0
		C110.9,145.1,115.7,139.4,120.5,134.2z M65.1,104.9c8.1-4.7,25.9,2,44.6,18.6c1.2,1.1,2.4,2.2,3.6,3.3c-7,7.5-13.9,16.1-20.5,25.4
		c-11.3,1-22.2,2.7-32.1,5c-0.6-2.5-1.2-4.9-1.7-7.4C54.5,126.7,57.5,109.3,65.1,104.9z M53.3,230.9c-2-0.6-4-1.2-5.9-1.9
		c-11.7-4-21.4-9.2-28.1-14.9c-6-5.1-9-10.2-9-14.3c0-8.8,13.1-19.9,34.9-27.5c2.7-0.9,5.5-1.8,8.3-2.6c3,9.8,7,20,11.7,30.4
		C60.4,210.6,56.4,221,53.3,230.9z M109.1,277.7c-9.3,8.2-18.7,14-26.9,16.9h0c-7.4,2.6-13.3,2.7-16.9,0.6
		c-7.6-4.4-10.7-21.3-6.4-43.9c0.5-2.7,1.1-5.3,1.8-8c9.9,2.2,20.8,3.7,32.4,4.7c6.7,9.4,13.6,18,20.7,25.5
		C112.2,275,110.6,276.4,109.1,277.7z M120.8,266.1c-4.9-5.3-9.7-11.1-14.5-17.3c4.6,0.2,9.3,0.3,14.1,0.3c4.9,0,9.8-0.1,14.5-0.3
		C130.2,255.1,125.5,260.9,120.8,266.1z M183.2,280.4c-1.4,7.7-4.3,12.9-7.9,14.9c-7.6,4.4-23.8-1.3-41.3-16.4c-2-1.7-4-3.6-6.1-5.5
		c6.8-7.4,13.6-16,20.2-25.6c11.6-1,22.6-2.7,32.6-5c0.5,2,0.9,3.9,1.3,5.8C184.5,260.8,184.8,271.8,183.2,280.4z M192,229.1
		L192,229.1c-1.3,0.4-2.7,0.9-4,1.3c-3-9.6-7.2-19.9-12.2-30.5c4.8-10.3,8.8-20.5,11.7-30c2.5,0.7,4.9,1.5,7.2,2.3
		c22.3,7.7,35.9,19,35.9,27.7C230.4,209.1,215.8,221.2,192,229.1z M120.4,221.3c11.9,0,21.5-9.6,21.5-21.5
		c0-11.9-9.6-21.5-21.5-21.5s-21.5,9.6-21.5,21.5C98.9,211.7,108.5,221.3,120.4,221.3z"/>
	<path class="st0" d="M141.9,199.8c0,11.9-9.6,21.5-21.5,21.5s-21.5-9.6-21.5-21.5c0-11.9,9.6-21.5,21.5-21.5
		S141.9,187.9,141.9,199.8z"/>
</g>
</svg>
